<svg width="16" height="17" viewBox="0 0 16 17" fill="none" xmlns="http://www.w3.org/2000/svg">
	<g clip-path="url(#clip0_4994_4935)">
	<path d="M6.97215 14.8872L5.44715 14.4447C5.28715 14.3997 5.19715 14.2322 5.24215 14.0722L8.65465 2.31716C8.69965 2.15716 8.86715 2.06716 9.02715 2.11216L10.5521 2.55466C10.7121 2.59966 10.8021 2.76716 10.7571 2.92716L7.34465 14.6822C7.29715 14.8422 7.13215 14.9347 6.97215 14.8872ZM4.12215 12.0822L5.20965 10.9222C5.32465 10.7997 5.31715 10.6047 5.18965 10.4922L2.92465 8.49966L5.18965 6.50716C5.31715 6.39466 5.32715 6.19966 5.20965 6.07716L4.12215 4.91716C4.00965 4.79716 3.81965 4.78966 3.69715 4.90466L0.0946484 8.27966C-0.0328516 8.39716 -0.0328516 8.59966 0.0946484 8.71716L3.69715 12.0947C3.81965 12.2097 4.00965 12.2047 4.12215 12.0822ZM12.3021 12.0972L15.9046 8.71966C16.0321 8.60216 16.0321 8.39966 15.9046 8.28216L12.3021 4.90216C12.1821 4.78966 11.9921 4.79466 11.8771 4.91466L10.7896 6.07466C10.6746 6.19716 10.6821 6.39216 10.8096 6.50466L13.0746 8.49966L10.8096 10.4922C10.6821 10.6047 10.6721 10.7997 10.7896 10.9222L11.8771 12.0822C11.9896 12.2047 12.1796 12.2097 12.3021 12.0972Z" fill="#626262" fill-opacity="0.8"/>
	</g>
	<defs>
	<clipPath id="clip0_4994_4935">
	<rect width="16" height="16" fill="white" transform="translate(0 0.5)"/>
	</clipPath>
	</defs>
	</svg>
	