<svg width="14" height="14" viewBox="0 0 14 14" fill="none" xmlns="http://www.w3.org/2000/svg">
<path d="M2.40382 5.43555L0.164211 3.19595C0.112154 3.14395 0.070856 3.0822 0.0426794 3.01423C0.0145028 2.94625 0 2.8734 0 2.79982C0 2.72624 0.0145028 2.65338 0.0426794 2.58541C0.070856 2.51744 0.112154 2.45569 0.164211 2.40369L2.40382 0.164082C2.50888 0.0590222 2.65137 -1.10699e-09 2.79995 0C2.94852 1.10699e-09 3.09102 0.0590222 3.19608 0.164082C3.30114 0.269143 3.36016 0.411635 3.36016 0.560212C3.36016 0.70879 3.30114 0.851282 3.19608 0.956342L1.3519 2.79982L3.19608 4.64329C3.30114 4.74835 3.36016 4.89084 3.36016 5.03942C3.36016 5.188 3.30114 5.33049 3.19608 5.43555C3.09102 5.54061 2.94852 5.59963 2.79995 5.59963C2.65137 5.59963 2.50888 5.54061 2.40382 5.43555ZM5.20332 5.43555C5.25532 5.48761 5.31707 5.52891 5.38504 5.55708C5.45301 5.58526 5.52587 5.59976 5.59945 5.59976C5.67303 5.59976 5.74589 5.58526 5.81386 5.55708C5.88183 5.52891 5.94358 5.48761 5.99558 5.43555L8.23518 3.19595C8.28724 3.14395 8.32854 3.0822 8.35672 3.01423C8.38489 2.94625 8.3994 2.8734 8.3994 2.79982C8.3994 2.72624 8.38489 2.65338 8.35672 2.58541C8.32854 2.51744 8.28724 2.45569 8.23518 2.40369L5.99558 0.164082C5.89052 0.0590222 5.74803 0 5.59945 0C5.45087 0 5.30838 0.0590222 5.20332 0.164082C5.09826 0.269143 5.03924 0.411635 5.03924 0.560212C5.03924 0.70879 5.09826 0.851282 5.20332 0.956342L7.04749 2.79982L5.20332 4.64329C5.15126 4.69529 5.10997 4.75704 5.08179 4.82501C5.05361 4.89298 5.03911 4.96584 5.03911 5.03942C5.03911 5.113 5.05361 5.18586 5.08179 5.25383C5.10997 5.3218 5.15126 5.38355 5.20332 5.43555ZM12.3183 1.12011H10.6386C10.4901 1.12011 10.3477 1.1791 10.2426 1.2841C10.1376 1.38911 10.0787 1.53152 10.0787 1.68001C10.0787 1.82851 10.1376 1.97092 10.2426 2.07592C10.3477 2.18093 10.4901 2.23992 10.6386 2.23992H12.3183V12.3181H2.24004V7.83893C2.24004 7.69043 2.18105 7.54802 2.07605 7.44302C1.97105 7.33801 1.82864 7.27902 1.68014 7.27902C1.53165 7.27902 1.38924 7.33801 1.28423 7.44302C1.17923 7.54802 1.12024 7.69043 1.12024 7.83893V12.3181C1.12024 12.6151 1.23822 12.8999 1.44822 13.11C1.65823 13.32 1.94305 13.4379 2.24004 13.4379H12.3183C12.6153 13.4379 12.9001 13.32 13.1101 13.11C13.3201 12.8999 13.4381 12.6151 13.4381 12.3181V2.23992C13.4381 1.94293 13.3201 1.6581 13.1101 1.4481C12.9001 1.23809 12.6153 1.12011 12.3183 1.12011Z" fill="#7F7F7F"/>
</svg>
