<svg width="10" height="14" viewBox="0 0 10 14" fill="none" xmlns="http://www.w3.org/2000/svg">
<path d="M10 0.5V1.5C10 1.63261 9.9473 1.75979 9.8536 1.85356C9.7598 1.94732 9.6326 2 9.5 2H7.5388L5.03875 12H6.5C6.63261 12 6.75979 12.0526 6.85355 12.1464C6.94732 12.2402 7 12.3674 7 12.5V13.5C7 13.6326 6.94732 13.7598 6.85355 13.8535C6.75979 13.9473 6.63261 14 6.5 14H0.5C0.36739 14 0.24021 13.9473 0.14645 13.8535C0.05268 13.7598 0 13.6326 0 13.5V12.5C0 12.3674 0.05268 12.2402 0.14645 12.1464C0.24021 12.0526 0.36739 12 0.5 12H2.46125L4.96125 2H3.5C3.36739 2 3.24021 1.94732 3.14645 1.85356C3.05268 1.75979 3 1.63261 3 1.5V0.5C3 0.36739 3.05268 0.24022 3.14645 0.14645C3.24021 0.05268 3.36739 0 3.5 0H9.5C9.6326 0 9.7598 0.05268 9.8536 0.14645C9.9473 0.24022 10 0.36739 10 0.5Z" fill="#7F7F7F"/>
</svg>
