<?xml version="1.0" encoding="UTF-8"?><svg xmlns="http://www.w3.org/2000/svg" viewBox="0 0 1840 750"><defs><style>.r{fill:none;}.s{fill:#7812a7;}</style></defs><g id="a"/><g id="b"><g id="c"><g id="d"><rect id="e" class="r" width="1840" height="750"/><g id="f"><path id="g" class="s" d="M1564.27,417.04c-11.79,12.31-33.92,21.54-46.22,5.91-.86-1.09-.43-2.7,.88-3.16l93.6-32.91c2.26-.79,3.66-3.08,3.29-5.44-13.93-89.82-137.15-57.39-141.76,22.96-3,75.54,87.15,86.13,125.6,32.85,1.66-2.3,1.08-5.52-1.28-7.1l-25.15-16.77c-2.16-1.44-5.04-.96-6.68,1.05-.73,.89-1.49,1.76-2.28,2.61Zm-38.18-35.92c10.68-10.89,26.92-18.56,40.4-11.08,1.56,.86,1.31,3.18-.39,3.68l-38.7,11.45c-1.96,.58-3.42-1.8-2.03-3.29l.71-.76Z"/><path id="h" class="s" d="M1455.78,343.38c-22.35-23.57-59.29-20.03-81.47,2.69-1.34,1.37-3.66,.2-3.39-1.7l.25-1.71c.17-1.21-.76-2.29-1.98-2.29h-33.78c-2.49,0-4.59,1.83-4.95,4.29l-16.46,114c-.44,3.01,1.9,5.71,4.95,5.71h30.31c2.49,0,4.59-1.83,4.95-4.29l7.95-55.02c2.04-18.59,21.85-38.18,41.11-37.89,13.64-.86,23.12,12.22,20.97,23.82,0,0-7.28,50.41-9.77,67.66-.44,3.01,1.9,5.71,4.95,5.71h30.31c2.49,0,4.59-1.83,4.95-4.29l9.58-66.33c3.06-19.56,4.77-37.92-8.47-50.38Z"/><path id="i" class="s" d="M1229.52,470.98c-36.2,.66-64.24-30.27-61.07-66.58,1.69-56.65,78.75-103.1,123.51-61.01,47.36,45.48-1.65,129.15-62.43,127.59Zm20.15-103.8c-38.07-.62-62.44,65.89-16.27,63.54,18.18-1.97,36.51-21.45,37.36-39.72,1.59-11.69-7.15-24.63-21.09-23.82Z"/><path id="j" class="s" d="M1135.62,284.66l-25.13,174c-.44,3.01,1.9,5.71,4.95,5.71h30.31c2.49,0,4.59-1.83,4.95-4.29l25.13-174c.44-3.01-1.9-5.71-4.95-5.71h-30.31c-2.49,0-4.59,1.83-4.95,4.29Z"/><path id="k" class="s" d="M1079.65,381.73c-2.49,.87-5.2-.37-6.25-2.8-8.24-19.09-36.28-12.17-48.4,2.19-34.8,41.01,11.14,69.3,40.45,33.24,1.63-2,4.51-2.44,6.66-1l25.13,16.84c2.36,1.58,2.93,4.81,1.26,7.11-38.8,53.26-128.23,42.75-125.52-32.92,1.69-56.64,78.75-103.1,123.51-61.01,6.48,6.1,11.42,13.6,14.62,21.97,1.01,2.63-.38,5.58-3.04,6.5l-28.41,9.87Z"/><path id="l" class="s" d="M983.75,329.2c-20.34-6.18-42.8,1.4-58.33,17.01-1.37,1.38-3.7,.25-3.42-1.67l.27-1.87c.17-1.21-.76-2.29-1.98-2.29h-33.78c-2.49,0-4.59,1.83-4.95,4.29l-16.46,114c-.44,3.01,1.9,5.71,4.95,5.71h30.31c2.49,0,4.59-1.83,4.95-4.29l7.95-55.02c1.09-8.1,5.15-16.77,11.9-23.95,10.71-10.69,26.06-18.35,39.63-11.45,2.54,1.29,5.65,.34,6.88-2.24l15.03-31.31c1.31-2.73-.07-6.04-2.97-6.92Z"/><g id="m"><path id="n" class="s" d="M821.6,376.66l-11.84,82c-.44,3.01,1.9,5.71,4.95,5.71h30.31c2.49,0,4.59-1.83,4.95-4.29l11.84-82c.44-3.01-1.9-5.71-4.95-5.71h-30.31c-2.49,0-4.59,1.83-4.95,4.29Z"/><path id="o" class="s" d="M856.19,308.4c-28.74-1.3-49.51,51.75-12.76,49.83,14.26-1.54,28.63-16.82,29.3-31.15,1.46-8.82-5.94-19.57-16.54-18.68Z"/></g><path id="p" class="s" d="M701.84,471.05c-50.14,.86-89.78-42.15-85.78-92.61,1.4-79.44,109.43-143.53,171.54-84.47,11.85,11.15,20.09,25.47,24.03,41.68,.68,2.8-1.12,5.61-3.96,6.13l-39.72,7.23c-2.45,.45-4.84-.99-5.64-3.35-17.97-52.91-96.55-9.01-96.33,35.67,.26,52.85,62.37,47.12,85.63,13.04,1.54-2.25,4.57-2.9,6.86-1.42,8.06,5.2,25.39,16.39,33.44,21.59,2.37,1.53,3.03,4.74,1.4,7.05-20.95,29.73-55.93,49.69-91.46,49.48Z"/></g><g id="q"><path class="s" d="M508.95,378.44c-8.43-5.98-20.12-4.23-26.89,3.57-8.88,10.22-18.37,18.24-27.94,23.84-6.7,3.92-9.11-.59-4.15-5.6,55.49-55.37,46.88-141.93-26.18-184.22-23-13.23-43.08,19.66-20.7,34.23,10.21,6.33,18.83,13.26,25.34,21.03,9.69,11.57-1.93,16.52-9.72,9.72-30.53-26.6-72.48-35.14-113.02-24.9-32.17,8.17-61.81,27.57-85.73,56.1-8.87,10.58-7.48,26.35,3.1,35.22,10.58,8.87,26.35,7.48,35.22-3.1,40.8-51.17,106.18-41.56,68.5-28.52-35.96,12.44-66.26,42.94-78.59,78.45-11.07,31.1-9.44,65.55,4.7,99.63,5.26,12.8,20.05,18.7,32.45,13.6,12.79-5.16,18.8-20.43,13.56-33.19-9.29-22.61-10.5-43.89-3.6-63.27,5.91-16.61,17.81-31.11,33.51-40.84,20.24-12.55,49.24-17.56,68.42-1.18,3.37,2.82,3.96,8.7,1.59,12.26-3.14,4.7-9.5,5.74-13.74,1.65-4.4-4.25-10.69-6.43-17.19-5.34-10.89,1.83-18.24,12.14-16.42,23.03,4.49,32,38.32,55.47,71.54,54.58,30.9,0,63.11-16.7,89.57-47.31,7.65-8.85,6.17-22.5-3.62-29.44Z"/><path class="s" d="M397.07,479.15c-23.91-4.71-45.6-16.66-56.42-38.92-7.87-16.31-32.09-8.25-28.41,9.65,8.25,36.92,38.2,72.17,74.56,78.66,32.98,5.89,42.74-41.3,10.27-49.4Z"/></g></g></g></g></svg>