<svg width="14" height="18" viewBox="0 0 14 18" fill="none" xmlns="http://www.w3.org/2000/svg">
<path fill-rule="evenodd" clip-rule="evenodd" d="M2.34769 3.375C0.659182 3.375 -0.304654 5.30267 0.708452 6.65348C1.14085 7.23001 1.37459 7.93123 1.37459 8.6519V14C1.37459 16.1861 3.1468 17.9583 5.33293 17.9583H8.66626C10.8524 17.9583 12.6246 16.1861 12.6246 14V8.6519C12.6246 7.93123 12.8583 7.23001 13.2907 6.65348C14.3038 5.30267 13.34 3.375 11.6515 3.375H2.34769ZM8.6665 7.54167C9.01168 7.54167 9.2915 7.82149 9.2915 8.16667V13.1667C9.2915 13.5118 9.01168 13.7917 8.6665 13.7917C8.32133 13.7917 8.0415 13.5118 8.0415 13.1667V8.16667C8.0415 7.82149 8.32133 7.54167 8.6665 7.54167ZM5.95817 8.16667C5.95817 7.82149 5.67835 7.54167 5.33317 7.54167C4.98799 7.54167 4.70817 7.82149 4.70817 8.16667V13.1667C4.70817 13.5118 4.98799 13.7917 5.33317 13.7917C5.67835 13.7917 5.95817 13.5118 5.95817 13.1667V8.16667Z" fill="#FF3B30"/>
<path d="M10.3327 4L9.87922 2.63962C9.65237 1.95905 9.01547 1.5 8.29808 1.5H5.70061C4.98323 1.5 4.34633 1.95905 4.11948 2.63962L3.66602 4" stroke="#FF3B30" stroke-width="1.25" stroke-linecap="round"/>
</svg>
