<svg width="15" height="15" viewBox="0 0 15 15" fill="none" xmlns="http://www.w3.org/2000/svg">
<path fill-rule="evenodd" clip-rule="evenodd" d="M8.70068 0.613786C9.35106 -0.0375801 10.4059 -0.0379798 11.0568 0.612894L13.1334 2.68944C13.7787 3.33476 13.7854 4.37946 13.1484 5.03302L11.765 6.45237L7.3146 2.00196L8.70068 0.613786ZM6.43139 2.88651L10.8925 7.3476L5.4541 12.9274C4.98375 13.41 4.33864 13.6821 3.66502 13.6821L1.37157 13.682C0.660873 13.6819 0.0933094 13.0895 0.1232 12.3789L0.221662 10.0381C0.247994 9.41203 0.50818 8.8187 0.950737 8.37547L6.43139 2.88651ZM14.0932 14.2458C14.4383 14.2458 14.718 13.9659 14.718 13.6206C14.718 13.2753 14.4383 12.9953 14.0932 12.9953H8.99182C8.64677 12.9953 8.36705 13.2753 8.36705 13.6206C8.36705 13.9659 8.64677 14.2458 8.99182 14.2458H14.0932Z" fill="#333333"/>
</svg>
