<svg width="18" height="12" viewBox="0 0 18 12" fill="none" xmlns="http://www.w3.org/2000/svg">
	<path fill-rule="evenodd" clip-rule="evenodd" d="M9.00193 0.373047C5.60097 0.373047 2.64235 2.2621 1.12075 5.04436C0.795692 5.63873 0.795687 6.35723 1.12074 6.95161C2.64231 9.73394 5.60097 11.623 9.00198 11.623C12.4029 11.623 15.3616 9.73399 16.8832 6.95174C17.2082 6.35737 17.2082 5.63886 16.8832 5.04448C15.3616 2.26216 12.4029 0.373047 9.00193 0.373047ZM9.00111 4.12347C7.96558 4.12347 7.12611 4.96294 7.12611 5.99847C7.12611 7.034 7.96558 7.87347 9.00111 7.87347C9.56806 7.87347 10.0762 7.62184 10.4201 7.22417C9.84826 7.10931 9.41758 6.60429 9.41758 5.99867C9.41758 5.39295 9.84841 4.88786 10.4204 4.77312C10.0765 4.37525 9.56823 4.12347 9.00111 4.12347ZM5.87611 5.99847C5.87611 4.27258 7.27523 2.87347 9.00111 2.87347C10.727 2.87347 12.1261 4.27258 12.1261 5.99847C12.1261 7.72436 10.727 9.12347 9.00111 9.12347C7.27523 9.12347 5.87611 7.72436 5.87611 5.99847Z" fill="#333333"/>
	</svg>
	