<?xml version="1.0" encoding="UTF-8"?>
<!-- Generator: visioncortex VTracer 0.6.3 -->
<svg version="1.1" xmlns="http://www.w3.org/2000/svg" width="47" height="46">
<path d="M0 0 C2.15 0 4.29 -0.04 6.43 -0.08 C7.81 -0.09 9.18 -0.09 10.56 -0.09 C11.8 -0.1 13.04 -0.11 14.32 -0.11 C19.41 0.79 22.13 3.15 25.14 7.42 C26.71 12.5 26.15 18.11 26.16 23.38 C26.18 24.64 26.21 25.91 26.23 27.22 C26.27 38.86 26.27 38.86 21.78 43.5 C16.98 48.05 10.77 47.02 4.57 47 C2.42 47 0.28 47.04 -1.87 47.09 C-3.24 47.09 -4.62 47.09 -5.99 47.09 C-7.23 47.1 -8.47 47.11 -9.75 47.12 C-14.84 46.21 -17.56 43.85 -20.57 39.58 C-22.15 34.5 -21.59 28.89 -21.59 23.63 C-21.62 22.36 -21.64 21.09 -21.67 19.79 C-21.7 8.14 -21.7 8.14 -17.22 3.5 C-12.41 -1.05 -6.21 -0.02 0 0 Z " fill="#E86E2D" transform="translate(21.216796875,-0.5009765625)"/>
<path d="M0 0 C2.15 0 4.29 -0.04 6.43 -0.08 C7.81 -0.09 9.18 -0.09 10.56 -0.09 C11.8 -0.1 13.04 -0.11 14.32 -0.11 C19.41 0.79 22.13 3.15 25.14 7.42 C26.71 12.5 26.15 18.11 26.16 23.38 C26.18 24.64 26.21 25.91 26.23 27.22 C26.27 38.86 26.27 38.86 21.78 43.5 C16.98 48.05 10.77 47.02 4.57 47 C2.42 47 0.28 47.04 -1.87 47.09 C-3.24 47.09 -4.62 47.09 -5.99 47.09 C-7.23 47.1 -8.47 47.11 -9.75 47.12 C-14.84 46.21 -17.56 43.85 -20.57 39.58 C-22.15 34.5 -21.59 28.89 -21.59 23.63 C-21.62 22.36 -21.64 21.09 -21.67 19.79 C-21.7 8.14 -21.7 8.14 -17.22 3.5 C-12.41 -1.05 -6.21 -0.02 0 0 Z M-16.22 7.5 C-18.5 12.06 -17.54 18.3 -17.59 23.31 C-17.63 24.6 -17.67 25.88 -17.71 27.21 C-17.72 28.44 -17.73 29.68 -17.74 30.96 C-17.76 32.09 -17.78 33.23 -17.8 34.39 C-17.04 38.45 -15.34 39.91 -12.22 42.5 C-8.15 44.54 -2.94 43.73 1.53 43.75 C2.62 43.77 3.7 43.79 4.82 43.81 C12.74 43.87 12.74 43.87 19.78 40.5 C23.15 35.45 22.19 29.56 22.22 23.63 C22.25 22.35 22.29 21.07 22.32 19.75 C22.69 12.39 22.69 12.39 19.44 6.18 C13.89 2.68 8.34 3.24 1.97 3.19 C0.35 3.14 0.35 3.14 -1.3 3.1 C-7.57 3.05 -11.5 3.19 -16.22 7.5 Z " fill="#F9F5F3" transform="translate(21.216796875,-0.5009765625)"/>
<path d="M0 0 C0.66 0 1.32 0 2 0 C3.47 5.23 4.23 9.58 4 15 C4.66 15 5.32 15 6 15 C5.98 13.91 5.96 12.81 5.94 11.69 C6 8 6 8 7 5 C7.99 5 8.98 5 10 5 C10 4.34 10 3.68 10 3 C10.66 3.33 11.32 3.66 12 4 C11.67 5.32 11.34 6.64 11 8 C10.34 8 9.68 8 9 8 C9 8.66 9 9.32 9 10 C8.34 10 7.68 10 7 10 C7 11.65 7 13.3 7 15 C9.64 14.67 12.28 14.34 15 14 C14.67 14.99 14.34 15.98 14 17 C11.69 17 9.38 17 7 17 C7 19.31 7 21.62 7 24 C8.65 24.33 10.3 24.66 12 25 C12 25.66 12 26.32 12 27 C10.68 27 9.36 27 8 27 C8 26.34 8 25.68 8 25 C7.34 25 6.68 25 6 25 C6 22.36 6 19.72 6 17 C5.34 17 4.68 17 4 17 C4.04 18.2 4.08 19.39 4.12 20.62 C4.14 24.42 3.42 27.45 2 31 C1.34 31 0.68 31 0 31 C0.66 26.38 1.32 21.76 2 17 C1.34 17 0.68 17 0 17 C0 19.97 0 22.94 0 26 C-1.32 26 -2.64 26 -4 26 C-4 26.66 -4 27.32 -4 28 C-7.3 28 -10.6 28 -14 28 C-14 27.34 -14 26.68 -14 26 C-11.36 26 -8.72 26 -6 26 C-6 25.34 -6 24.68 -6 24 C-4.68 24 -3.36 24 -2 24 C-1.67 21.69 -1.34 19.38 -1 17 C-1.96 17.02 -2.93 17.05 -3.92 17.07 C-5.19 17.09 -6.45 17.11 -7.75 17.12 C-9 17.15 -10.26 17.17 -11.55 17.2 C-14.73 17.02 -16.37 16.69 -19 15 C-19 14.34 -19 13.68 -19 13 C-13.06 13.66 -7.12 14.32 -1 15 C-1 13.35 -1 11.7 -1 10 C-1.99 10 -2.98 10 -4 10 C-4 9.34 -4 8.68 -4 8 C-5.32 8 -6.64 8 -8 8 C-8 7.34 -8 6.68 -8 6 C-9.32 6 -10.64 6 -12 6 C-12.66 4.35 -13.32 2.7 -14 1 C-12.68 1.33 -11.36 1.66 -10 2 C-10 2.66 -10 3.32 -10 4 C-8.68 4 -7.36 4 -6 4 C-6 4.66 -6 5.32 -6 6 C-4.68 6 -3.36 6 -2 6 C-2 6.66 -2 7.32 -2 8 C-1.34 8 -0.68 8 0 8 C0 10.64 0 13.28 0 16 C0.66 16 1.32 16 2 16 C1.86 14.27 1.71 12.54 1.56 10.81 C1.48 9.85 1.4 8.89 1.32 7.89 C1.02 5.21 0.57 2.63 0 0 Z " fill="#42342C" transform="translate(26,11)"/>
<path d="M0 0 C0.66 0 1.32 0 2 0 C2.05 1.6 2.09 3.21 2.12 4.81 C2.15 5.71 2.17 6.6 2.2 7.52 C2 10 2 10 0 13 C-3.13 13.19 -3.13 13.19 -6 13 C-5.34 11.68 -4.68 10.36 -4 9 C-2.68 9 -1.36 9 0 9 C0 6.03 0 3.06 0 0 Z " fill="#D37228" transform="translate(26,28)"/>
<path d="M0 0 C5.94 0.66 11.88 1.32 18 2 C18 2.33 18 2.66 18 3 C15.75 3.22 13.5 3.43 11.25 3.62 C9.37 3.8 9.37 3.8 7.45 3.98 C4.16 4 2.69 3.78 0 2 C0 1.34 0 0.68 0 0 Z " fill="#734C2B" transform="translate(7,24)"/>
<path d="M0 0 C3.3 0 6.6 0 10 0 C10 0.33 10 0.66 10 1 C7.69 1.33 5.38 1.66 3 2 C3 2.66 3 3.32 3 4 C2.34 4 1.68 4 1 4 C1 4.99 1 5.98 1 7 C2.32 7.66 3.64 8.32 5 9 C3.02 9 1.04 9 -1 9 C-0.67 6.03 -0.34 3.06 0 0 Z " fill="#B15C24" transform="translate(15,28)"/>
<path d="M0 0 C-0.33 0.99 -0.66 1.98 -1 3 C-3.31 3 -5.62 3 -8 3 C-8 2.34 -8 1.68 -8 1 C-5.11 0.17 -3.11 0 0 0 Z " fill="#67482E" transform="translate(41,25)"/>
<path d="M0 0 C1.65 0 3.3 0 5 0 C5 0.66 5 1.32 5 2 C5.66 2.33 6.32 2.66 7 3 C4.36 3 1.72 3 -1 3 C-0.67 2.01 -0.34 1.02 0 0 Z " fill="#F49C3C" transform="translate(17,8)"/>
<path d="M0 0 C2.31 0 4.62 0 7 0 C7.33 0.99 7.66 1.98 8 3 C2.25 2.25 2.25 2.25 0 0 Z " fill="#F89F3E" transform="translate(24,8)"/>
</svg>
