<svg width="23" height="23" viewBox="0 0 23 23" fill="none" xmlns="http://www.w3.org/2000/svg">
<g filter="url(#filter0_dd_4115_7406)">
<path d="M14.3125 11.9932V7.52099C14.3123 7.32492 14.2605 7.13236 14.1624 6.96261C14.0643 6.79286 13.9233 6.6519 13.7535 6.55387L9.84028 4.31776C9.67031 4.21963 9.47751 4.16797 9.28125 4.16797C9.08499 4.16797 8.89219 4.21963 8.72222 4.31776L4.80903 6.55387C4.63923 6.6519 4.4982 6.79286 4.40008 6.96261C4.30196 7.13236 4.2502 7.32492 4.25 7.52099V11.9932C4.2502 12.1893 4.30196 12.3818 4.40008 12.5516C4.4982 12.7213 4.63923 12.8623 4.80903 12.9603L8.72222 15.1964C8.89219 15.2946 9.08499 15.3462 9.28125 15.3462C9.47751 15.3462 9.67031 15.2946 9.84028 15.1964L13.7535 12.9603C13.9233 12.8623 14.0643 12.7213 14.1624 12.5516C14.2605 12.3818 14.3123 12.1893 14.3125 11.9932Z" stroke="#7812A7" stroke-width="3" stroke-linecap="round" stroke-linejoin="round"/>
<path d="M14.7084 10.1135L13.0878 5.94524C13.0165 5.76257 12.8985 5.60185 12.7455 5.4792C12.5926 5.35654 12.4101 5.27627 12.2163 5.24643L7.75873 4.58037C7.56476 4.5505 7.36634 4.57221 7.18342 4.64334C7.0005 4.71446 6.83952 4.83247 6.71667 4.98552L3.87977 8.48771C3.75704 8.64061 3.67667 8.82309 3.64674 9.01686C3.6168 9.21063 3.63834 9.40886 3.7092 9.59167L5.32984 13.7599C5.40108 13.9426 5.5191 14.1033 5.67206 14.226C5.82503 14.3486 6.00755 14.4289 6.20133 14.4587L10.6589 15.1248C10.8528 15.1547 11.0513 15.1329 11.2342 15.0618C11.4171 14.9907 11.5781 14.8727 11.7009 14.7196L14.5378 11.2174C14.6606 11.0645 14.7409 10.8821 14.7709 10.6883C14.8008 10.4945 14.7793 10.2963 14.7084 10.1135Z" stroke="#7812A7" stroke-width="3" stroke-linecap="round" stroke-linejoin="round"/>
<path d="M9.45102 12.2876L7 10.887V8.11301L9.45102 6.71243L11.902 8.11301V10.887L9.45102 12.2876Z" stroke="#7812A7" stroke-width="5" stroke-linecap="round" stroke-linejoin="round"/>
<path d="M11.5417 7.375L8.33333 12.5083L6.875 10.175" stroke="white" stroke-width="1.5" stroke-linecap="round" stroke-linejoin="round"/>
</g>
<defs>
<filter id="filter0_dd_4115_7406" x="0.132812" y="0.667969" width="22.3672" height="22.332" filterUnits="userSpaceOnUse" color-interpolation-filters="sRGB">
<feFlood flood-opacity="0" result="BackgroundImageFix"/>
<feColorMatrix in="SourceAlpha" type="matrix" values="0 0 0 0 0 0 0 0 0 0 0 0 0 0 0 0 0 0 127 0" result="hardAlpha"/>
<feOffset dx="2" dy="2"/>
<feGaussianBlur stdDeviation="2"/>
<feComposite in2="hardAlpha" operator="out"/>
<feColorMatrix type="matrix" values="0 0 0 0 0 0 0 0 0 0 0 0 0 0 0 0 0 0 0.08 0"/>
<feBlend mode="normal" in2="BackgroundImageFix" result="effect1_dropShadow_4115_7406"/>
<feColorMatrix in="SourceAlpha" type="matrix" values="0 0 0 0 0 0 0 0 0 0 0 0 0 0 0 0 0 0 127 0" result="hardAlpha"/>
<feOffset/>
<feGaussianBlur stdDeviation="0.5"/>
<feComposite in2="hardAlpha" operator="out"/>
<feColorMatrix type="matrix" values="0 0 0 0 0 0 0 0 0 0 0 0 0 0 0 0 0 0 0.15 0"/>
<feBlend mode="normal" in2="effect1_dropShadow_4115_7406" result="effect2_dropShadow_4115_7406"/>
<feBlend mode="normal" in="SourceGraphic" in2="effect2_dropShadow_4115_7406" result="shape"/>
</filter>
</defs>
</svg>
