<svg width="62" height="62" viewBox="0 0 62 62" fill="none" xmlns="http://www.w3.org/2000/svg">
<g clip-path="url(#clip0_1625_3275)">
<path d="M31.0001 62.0001C48.1209 62.0001 62.0001 48.1209 62.0001 31.0001C62.0001 13.8792 48.1209 0 31.0001 0C13.8792 0 0 13.8792 0 31.0001C0 48.1209 13.8792 62.0001 31.0001 62.0001Z" fill="#FFC10E"/>
<path d="M16.4106 39.414C13.604 45.4611 13.9339 51.5731 17.149 53.0658C20.3653 54.5577 25.2479 50.8649 28.0551 44.8179L16.4106 39.414Z" fill="#CA2027"/>
<path d="M21.5796 25.1767C24.2684 25.1767 26.4482 22.9969 26.4482 20.3081C26.4482 17.6192 24.2684 15.4395 21.5796 15.4395C18.8907 15.4395 16.7109 17.6192 16.7109 20.3081C16.7109 22.9969 18.8907 25.1767 21.5796 25.1767Z" fill="#333333"/>
<path d="M39.9907 25.1767C42.6796 25.1767 44.8593 22.9969 44.8593 20.3081C44.8593 17.6192 42.6796 15.4395 39.9907 15.4395C37.3018 15.4395 35.1221 17.6192 35.1221 20.3081C35.1221 22.9969 37.3018 25.1767 39.9907 25.1767Z" fill="#333333"/>
<path d="M44.9072 37.2928C37.152 45.1849 24.6742 45.1219 16.9836 37.1753C15.8847 36.0397 14.1558 37.772 15.2532 38.9057C23.8572 47.7969 37.969 47.8455 46.6375 39.0232C47.7444 37.8973 46.0149 36.1659 44.9072 37.2928Z" fill="#333333"/>
</g>
<defs>
<clipPath id="clip0_1625_3275">
<rect width="62" height="62" fill="white"/>
</clipPath>
</defs>
</svg>
